<?xml version="1.0" encoding="UTF-8"?>
<svg viewBox="0 0 888 847" xmlns="http://www.w3.org/2000/svg">
<path transform="scale(1.2333 1.2329)" d="M668.8 182.6V144h-6v38.6a8 8 0 1 0 6 0z" fill="#E6E6E6"/>
<path transform="scale(1.2333 1.2329)" d="M682.8 572h-41V74h-16v498h-41a37 37 0 0 0-37 37h172a37 37 0 0 0-37-37z" fill="#E6E6E6"/>
<path transform="scale(1.2333 1.2329)" d="M547.9 148h171.8L709.2 16.7a18.2 18.2 0 0 0-18-16.7H576.3c-9.4 0-17.2 7.3-18 16.7L547.9 148z" fill="#6C63FF"/>
<path transform="scale(1.2333 1.2329)" d="M61.1 457.5h524.5V404a262.6 262.6 0 0 0-262.3-262.3A262.6 262.6 0 0 0 61.1 404v53.5z" fill="#3F3D56"/>
<path transform="scale(1.2333 1.2329)" d="M61.1 457.5h524.5V404a262.6 262.6 0 0 0-262.3-262.3A262.6 262.6 0 0 0 61.1 404v53.5z" fill-opacity=".2"/>
<path transform="scale(1.2333 1.2329)" d="M129 476h403.7a81.1 81.1 0 0 0-81-79.6H210.1a81.1 81.1 0 0 0-81 79.7l-.1-.1z" fill="#6C63FF"/>
<path transform="scale(1.2333 1.2329)" d="M162 386.8a78 78 0 0 1-23.7 57.3A78 78 0 0 1 81 467.8a78 78 0 0 1-57.3-23.7A78 78 0 0 1 0 386.8a78 78 0 0 1 23.7-57.3A78 78 0 0 1 81 305.8a78 78 0 0 1 57.3 23.7 78 78 0 0 1 23.7 60.1M653.5 386.8a78 78 0 0 1-23.7 57.3 78 78 0 0 1-57.3 23.7 78 78 0 0 1-57.3-23.7 78 78 0 0 1-23.7-57.3 78 78 0 0 1 23.7-57.3 78 78 0 0 1 57.3-23.7 78 78 0 0 1 57.3 23.7 78 78 0 0 1 23.7 60.1" fill="#3F3D56"/>
<path transform="scale(1.2333 1.2329)" d="M511.4 428v30.2H137.3V428H53.5v147.2a34 34 0 0 0 34 34h473.7a34 34 0 0 0 34-34V428h-83.8z" fill="#3F3D56"/>
<path transform="scale(1.2333 1.2329)" d="m97.5 386.8c0 4.6-1.6 8.4-4.8 11.7a15.9 15.9 0 0 1-11.7 4.8c-4.6 0-8.4-1.6-11.7-4.8a15.9 15.9 0 0 1-4.8-11.7c0-4.6 1.6-8.4 4.8-11.7 3.3-3.2 7.1-4.8 11.7-4.8s8.4 1.6 11.7 4.8a15.9 15.9 0 0 1 4.8 12.3m491.5-0.6c0 4.6-1.6 8.4-4.8 11.7a15.9 15.9 0 0 1-11.7 4.8c-4.6 0-8.4-1.6-11.7-4.8a15.9 15.9 0 0 1-4.8-11.7c0-4.6 1.6-8.4 4.8-11.7 3.3-3.2 7.1-4.8 11.7-4.8s8.4 1.6 11.7 4.8a15.9 15.9 0 0 1 4.8 12.3" fill-opacity=".2"/>
<path transform="scale(1.2333 1.2329)" d="m353.2 132.5s1.6 30.8 13 37.2 0 50.3 0 50.3l-53.5 1.6-3.3-51.8s6.5-21.1 3.3-30.8 40.5-6.5 40.5-6.5zm59.9 427.6-19.4 22.7 30.7 29.1 16.2-32.4-27.5-19.4zm-137.7 0 19.5 22.7-30.8 29.1-16.2-32.4 27.5-19.4z" fill="#FFB8B8"/>
<path transform="scale(1.2333 1.2329)" d="m402.6 345.5s116.6 38.9 110.1 76.1-56.7 168.5-56.7 168.5-27.5 0-48.6-29.2l14.6-32.4s-6.5-17.8 4.9-21 17.8-60 17.8-60-82.6-6.4-100.4-37.2l-32.4-77.8 90.7 13z" fill="#2F2E41"/>
<path transform="scale(1.2333 1.2329)" d="m286 345.5s-116.7 38.9-110.2 76.1 56.7 168.5 56.7 168.5 27.5 0 48.6-29.2l-14.6-32.4s6.5-17.8-4.8-21-17.9-60-17.9-60 82.7-6.4 100.5-37.2l32.4-77.8-90.7 13zm132.8 254.3s16.2-14.6 17.8-3.3-1.6 56.7-1.6 56.7 16.2 34-8.1 34-35.7-25.9-32.4-51.8-11.4-35.6-11.4-35.6-17.8-35.6 0-38.9 24.3 4.9 24.3 4.9-6.4 29.1 11.4 34z" fill="#2F2E41"/>
<path transform="scale(1.2333 1.2329)" d="m269.8 599.8s-16.2-14.6-17.9-3.3 1.7 56.7 1.7 56.7-16.2 34 8 34 35.7-25.9 32.5-51.8 11.3-35.6 11.3-35.6 17.8-35.6 0-38.9-24.3 4.9-24.3 4.9 6.5 29.1-11.3 34z" fill="#2F2E41"/>
<path transform="scale(1.2333 1.2329)" d="M365.4 113.9a36 36 0 0 1-11 26.4 36 36 0 0 1-26.3 10.9 36 36 0 0 1-26.4-11 36 36 0 0 1-10.9-26.3 36 36 0 0 1 11-26.4A36 36 0 0 1 328 76.6a36 36 0 0 1 26.4 11 36 36 0 0 1 10.9 27.6" fill="#FFB8B8"/>
<path transform="scale(1.2333 1.2329)" d="m333.7 177.8-22.6-17.8-55.1 26-1.6 147.3s-34 16.2-24.3 37.3c0 0 29.1 6.5 42 19.4s86-4.8 116.7-14.5 38.9-21.1 38.9-21.1l-30.8-43.7 17.8-111.8-55-37-26 15.9z" fill="#E6E6E6"/>
<path transform="scale(1.2333 1.2329)" d="M373.4 88.5c-.8-1-1.6-2.2-2.3-3.4-1.1-2.8.7-6.2-1-8.8-1.7-2.7-6.2-3.2-9.2-5-4.6-2.9-5.4-8.4-9.8-11.5a20 20 0 0 0-11.7-2.7c-4.1.1-8.3 1-12.5 1-5.7.1-11.3-1-16.4-3.4l3.1 6c-3.4-.7-6.7-2-9.7-3.8-1.3 1.6 1.1 4.2-.4 5.8a5 5 0 0 1-2.2 1c-6 1.7-11.5 4.4-16.5 8a8.3 8.3 0 0 0-2.8 3c-.8 1.8 0 3.8-.2 5.7 0 3.4-2.7 6.4-4.6 9.5-1.9 3.1-2.8 7.1 0 9.8l1.9 1.7c2.7 3.2-2.2 8 .2 11.5 1 1.5 3.1 2.2 5 3.1 3.5 1.7 6.4 4.3 8.4 7.6l-1.4-10.4c-.2-.5 0-1.2.3-1.6.7-.7 2.1-.4 3-.8 1.1-.6 1.2-1.7 1.2-2.7l-.4-7.6c-.1-3.4-.1-3.8 2.4-6.6 1.7-2 4.5-3 7.2-4 6.4-1.9 13.2-2.5 19.9-3.2 7.8-.8 16.6-4.6 22.7-.5 5 3.3 6.6 8.7 9 13.5 2.1 4.3 7.6 17 12.2 10.1 3-4.3 7.3-16.5 4.6-21.3z" fill="#2F2E41"/>
<path transform="scale(1.2333 1.2329)" d="M334.5 103a.6.6 0 0 0-.6.6v15.6a.6.6 0 0 0 .6.6h26.8a.6.6 0 0 0 .6-.6v-15.6c0-.3-.3-.5-.6-.5l-26.8-.1z" fill="#3F3D56"/>
<path transform="scale(1.2333 1.2329)" d="M337.5 104.4a1 1 0 0 0-1.1 1.1v11.9c0 .6.4 1 1 1h21c.6 0 1-.4 1-1v-11.9c0-.6-.4-1-1-1l-20.9-.1z" fill="#FF6584"/>
<path transform="scale(1.2333 1.2329)" d="m320.8 108.2h14v3.2h-14v-3.2z" fill="#3F3D56"/>
<path transform="scale(1.2333 1.2329)" d="M296.4 103c-.3 0-.5.3-.5.6v15.6c0 .3.2.6.5.6h26.9a.6.6 0 0 0 .6-.6v-15.6c0-.3-.3-.5-.6-.5l-26.9-.1z" fill="#3F3D56"/>
<path transform="scale(1.2333 1.2329)" d="M299.4 104.4a1 1 0 0 0-1 1.1v11.9c0 .6.4 1 1 1h20.9c.6 0 1-.4 1-1v-11.9c0-.6-.4-1-1-1l-20.9-.1z" fill="#6C63FF"/>
<path transform="scale(1.2333 1.2329)" d="m281.8 297.8h93a14 14 0 0 1 14 14h-121a14 14 0 0 1 14-14z" fill="#3F3D56"/>
<path transform="scale(1.2333 1.2329)" d="M381.3 296.8c-.5 0-1 0-1.6.2a3 3 0 1 0-6 .8l-1 .2a3 3 0 0 0-1.5-1.9 5 5 0 0 0 2.2-2.4 4 4 0 1 0-.1-8 5 5 0 0 0-1.6.3 3 3 0 0 0-5.8 1.6l-.3.3c-.5-.5-1.3-.7-2-.7a5 5 0 0 0-9.7 1.6c-.4 0-.8 0-1.2.2a3 3 0 0 0-.2-.5c.8-.7 1.3-1.7 1.3-2.7a4.3 4.3 0 0 0-4.5-4c-.5 0-1 0-1.6.2a3 3 0 0 0-5.8 1.6 5 5 0 0 0-2.1 4h-.1v-.8c-.2-2.3-2.1-4-4.4-4-.5 0-1 0-1.6.2a3 3 0 0 0-5.8 1.6 5 5 0 0 0 0 8.3c-.2.6-.2 1.1 0 1.7a5 5 0 0 0-1.3 1.3 3 3 0 0 0-5.8.5l-1.3-.5a5 5 0 0 0 1.9-2.2 4 4 0 1 0-.1-8 5 5 0 0 0-1.6.3 3 3 0 0 0-5.8 1.6l-.2.2h-.4c-.5 0-1 0-1.6.2l-.1-.2a3 3 0 0 0-3-3.6 5 5 0 1 0-8 5.6l-1 .2a3 3 0 0 0-4.7-1.6c-1-1-2.2-1.6-3.6-1.6-.5 0-1 0-1.6.2a3 3 0 0 0-5.8 1.6 5 5 0 0 0-2.1 4.2c-.7-.1-1.4 0-2.1.2a3 3 0 0 0-5.8 1.6 5 5 0 0 0 4 9 5 5 0 0 0 9.4 1.3c3.6.5 7.3.3 10.8-.5a5 5 0 0 0 9.3.3c.7 0 1.4-.2 2-.5a5 5 0 0 0 9-.5c2.3-.4 4.6.8 5.4 3 1.4-1.8 3.4-3 5.7-3.1 2 .6 4.3-.3 5.4-2.1a5 5 0 0 0 9.5 3.2c.7 0 1.4-.2 2-.5a5 5 0 0 0 9-.5c.7 0 1.4-.2 2-.5a5 5 0 0 0 7.5 1.5 5 5 0 0 0 8.9 2 5 5 0 0 0 7.6-2 4 4 0 1 0-.1-8v.1zm-89.4-2.1h-.1a5 5 0 0 0 .1 0zm41.8-1.7v-.1a5 5 0 0 0 1.7-2.2c1.3 0 2.5-.6 3.4-1.5v.6l.1.8a5 5 0 0 0-1.8 2.5 5 5 0 0 0-3.4 0zm30 .4v-.2h.3a5 5 0 0 0 1 1.7l-.3.1a3 3 0 0 0-1-1.6z" fill="#F9A825"/>
<path transform="scale(1.2333 1.2329)" d="M277.8 302.8a10.4 10.4 0 0 0-10.4 11l6.8 93c.2 5.6 4.8 10 10.4 10H372c5.6 0 10.3-4.4 10.5-10l6.7-93a10.4 10.4 0 0 0-10.4-11h-101z" fill="#3F3D56"/>
<path transform="scale(1.2333 1.2329)" d="m282.8 302.8h6v114h-6v-114zm17 0h6v114h-6v-114zm17 0h6v114h-6v-114zm17 0h6v114h-6v-114zm17 0h6v114h-6v-114zm17 0h6v114h-6v-114z" fill="#6C63FF"/>
<path transform="scale(1.2333 1.2329)" d="m367.8 359.3-19.5 11.3s-47 38.9-14.6 45.3 40.5-27.5 40.5-27.5l11.4-13-17.8-16.1z" fill="#FFB8B8"/>
<path transform="scale(1.2333 1.2329)" d="m275.4 351.2 19.5 11.3s47 38.9 14.5 45.3-40.4-27.5-40.4-27.5l-11.4-13 17.8-16.1z" fill="#FFB8B8"/>
<path transform="scale(1.2333 1.2329)" d="m393.7 197.3 21 1.6s16.2 14.6 14.6 34c0 0 14.6 42.1 11.3 60 0 0 3.3 29.1-1.6 40.4s-45.3 55.1-45.3 55.1-37.3-29.1-35.7-30.8l48.6-48.6-24.3-32.3 11.4-79.4zm-137.7-11.3-0.8 0.8s-36.5 15.3-34.8 34.8c0 0-14.6 42-11.4 60 0 0-3.2 29 1.6 40.4s45.4 55 45.4 55 37.2-29 35.6-30.7l-48.6-48.6 24.3-32.4z" fill="#E6E6E6"/>
</svg>
