<?xml version="1.0" encoding="UTF-8"?>
<svg viewBox="0 0 541 440" xmlns="http://www.w3.org/2000/svg">
<path d="M466.8 259.3H42.3a20.5 20.5 0 0 1-20.4-20.5V77.6a20.5 20.5 0 0 1 20.4-20.4h424.5a20.5 20.5 0 0 1 20.5 20.4V239a20.5 20.5 0 0 1-20.5 20.5v-.1z" fill="#FFF"/>
<path d="M466.8 259.3H42.3a20.5 20.5 0 0 1-20.4-20.5V77.6a20.5 20.5 0 0 1 20.4-20.4h424.5a20.5 20.5 0 0 1 20.5 20.4V239a20.5 20.5 0 0 1-20.5 20.5v-.1zM42.3 58.9a18.7 18.7 0 0 0-18.7 18.7v161.2a18.7 18.7 0 0 0 18.7 18.7h424.5a18.7 18.7 0 0 0 18.7-18.7V178c0-65.7-53.3-119-119-119z" fill="#E6E6E6"/>
<path d="M269.5 243.6C264 238 258.8 232 258.7 227c-1.3-43.7-14-54.2-13.3-71.2 0-.2-.2-.4-.4-.5a.5.5 0 0 0-.6.4c-3.5 28 9.2 53.7 8.7 72.7-.5 7 .8 13.8 3.5 20.1 2.7 5.4 6.6 8 10.2 9.3h6.9c-1-4.9-2.3-9.7-4.2-14.2zm32-89.8a.5.5 0 0 0-.7 0c-16.6 21.9-26.7 69.8-28.8 89.7 1.7 4.6 3 9.4 4 14.3h4.6c.4-.8.7-1.5.9-2.3.5-2.3.7-4.6.8-7 .3-5.2 0-13.1-1.4-24.7a103.7 103.8 0 0 1 20.9-69.7c0-.1 0-.3-.2-.4zM276.4 257v.1-.1zm-148.9-8.5c-.3 5.4-.7 8.5-.7 8.6 0 .3-.3.5-.6.5a.5.5 0 0 1-.4-.6c-.6.3-1.1.6-1.7.7h-2.4c-1.5-.5-3-2.8-3.4-9.2a126 126 0 0 1 2.8-27.1c3.4-18.6-2.5-46.2-19.4-68.4a.5.5 0 0 1 0-.8.5.5 0 0 1 .8.1 136 136 0 0 1 24.5 68.7 186.3 186.4 0 0 1 .5 27.5z" fill="#3F3D56"/>
<path d="m266.2 294.7h-30.5a5.6 5.6 0 0 1 0-11.3h30.5a5.6 5.6 0 1 1 0 11.3zm18.2 20.9h-66.8a5.6 5.6 0 0 1 0-11.3h66.8a5.6 5.6 0 1 1 0 11.3z" fill="#E6E6E6"/>
<path d="m251.3 196.4a98.2 98.2 0 1 1 0-196.4 98.2 98.2 0 0 1 0 196.4zm0-194.9a96.6 96.7 0 1 0 0 193.4 96.6 96.7 0 0 0 0-193.4z" fill="#F2F2F2"/>
<path d="M273 110.3c-3 .1-6.1.4-9.2.9L244 114l-12.3 1.7a21 21 0 1 1 41.4-5.4z" fill="#6C63FF"/>
<path d="M202.5 225.7c-1.8-.3-3-1.4-2.8-2.6.1-1.1 1.7-2 3.4-1.7s3 1.5 2.8 2.6c-.1 1.2-1.7 2-3.4 1.7" fill="#FFF"/>
<path d="M223 223.6c-1.9-.2-3-1.4-3-2.6.2-1.1 1.8-2 3.5-1.7s3 1.5 2.9 2.6c-.2 1.2-1.7 2-3.5 1.7" fill="#3F3D56"/>
<path d="M196.9 209c-1.8-.2-3-1.4-2.9-2.5.2-1.2 1.7-2 3.5-1.7s3 1.4 2.8 2.6c-.2 1.1-1.7 2-3.4 1.7" fill="#FF6584"/>
<path d="M189.8 202.8c-.7 0-1.3-1-1.3-2 0-1.1.6-2 1.4-2s1.4.9 1.3 2c0 1-.6 2-1.4 2" fill="#E6E6E6"/>
<path d="M186.8 190c-.8 0-1.4-.9-1.4-2 0-1 .6-2 1.4-2s1.4 1 1.4 2c0 1.2-.7 2-1.4 2" fill="#3F3D56"/>
<path d="M210.2 212.3c-.7 0-1.3-.9-1.3-2 0-1 .6-2 1.4-2s1.4 1 1.4 2c0 1.1-.7 2-1.5 2" fill="#E6E6E6"/>
<path d="M200.4 217.1c-.7 0-1.4-.9-1.3-2 0-1 .6-2 1.4-2s1.3 1 1.3 2c0 1.1-.6 2-1.4 2" fill="#FF6584"/>
<path d="M214.1 226.3c-.8 0-1.4-.9-1.4-2 0-1 .7-2 1.4-2s1.4 1 1.4 2c0 1.1-.6 2-1.4 2" fill="#3F3D56"/>
<path d="M395.4 105.2c-2.1-.5-3.6-2.2-3.2-3.7s2.4-2.2 4.6-1.7c2.2.6 3.6 2.2 3.2 3.7s-2.4 2.3-4.6 1.7" fill="#FFF"/>
<path d="M369.3 105c-2.2-.5-3.6-2.1-3.2-3.6s2.4-2.3 4.6-1.7c2.2.5 3.6 2.1 3.2 3.6s-2.4 2.3-4.6 1.8" fill="#3F3D56"/>
<path d="M400.5 126.9c-2.2-.6-3.6-2.2-3.2-3.7s2.4-2.3 4.5-1.7c2.2.5 3.6 2.2 3.2 3.7s-2.4 2.2-4.5 1.7" fill="#FF6584"/>
<path d="m409.1 135.7c-1-0.1-1.6-1.4-1.5-2.7 0.2-1.4 1-2.5 2-2.4s1.7 1.4 1.6 2.8c-0.2 1.3-1 2.4-2 2.3" fill="#E6E6E6"/>
<path d="m411.3 152.2c-1-0.1-1.6-1.4-1.4-2.8 0.1-1.3 1-2.4 2-2.3s1.6 1.3 1.5 2.7c-0.2 1.4-1 2.5-2 2.4" fill="#3F3D56"/>
<path d="M384.5 120.9c-1-.2-1.6-1.4-1.5-2.8.2-1.4 1.1-2.4 2.1-2.3 1 0 1.6 1.3 1.5 2.7-.2 1.4-1 2.5-2 2.4" fill="#E6E6E6"/>
<path d="m397.7 115.9c-1-0.1-1.6-1.3-1.4-2.7 0.1-1.4 1-2.5 2-2.4s1.7 1.4 1.5 2.8c-0.2 1.3-1 2.4-2 2.3" fill="#FF6584"/>
<path d="M381.5 102.5c-1 0-1.6-1.3-1.5-2.7.2-1.4 1-2.5 2-2.3 1 0 1.7 1.3 1.6 2.7-.2 1.4-1 2.4-2 2.3" fill="#3F3D56"/>
<path d="M446.9 72.5a77.5 77.5 0 0 1 3.4-49.5 3.8 3.8 0 0 1 4-3.4l37.3 2.6a3.8 3.8 0 0 1 3.6 4l-3.7 49.4a3.8 3.8 0 0 1-4 3.5l-37.2-2.5a3.8 3.8 0 0 1-3.4-4v-.1z" fill="#F2F2F2"/>
<path d="M450.7 57.8c-3-8.3-1-19.7 2.4-31.8a3.6 3.6 0 0 1 3.7-3.3l32 2.3c2 .1 3.4 1.8 3.3 3.8L489 72.7a3.6 3.6 0 0 1-3.8 3.3l-19.9-1.5a15.8 15.8 0 0 1-14.6-16.7z" fill="#FFF"/>
<path d="M484.4 37.4c-7.5 3.7-13.4 7.1-16.5 15-2-4.7-4-6.2-6-10.9-.7-1.4-2.7-.2-2 1.2l7 16.5c.5.9 2 .6 2.2-.4a32.2 32.2 0 0 1 16.6-19.4c1.3-.7.1-2.6-1.3-2z" fill="#6C63FF"/>
<path d="M148.5 287.4A77.5 77.5 0 0 1 152 238a3.8 3.8 0 0 1 4-3.5l37.3 2.7a3.8 3.8 0 0 1 3.5 4l-3.5 49.4a3.8 3.8 0 0 1-4 3.5l-37.3-2.6a3.8 3.8 0 0 1-3.5-4z" fill="#F2F2F2"/>
<path d="M152.4 272.7c-3-8.2-1-19.6 2.3-31.7a3.6 3.6 0 0 1 3.7-3.3l32.1 2.3c2 .1 3.4 1.8 3.3 3.7l-3.1 44a3.6 3.6 0 0 1-3.8 3.3l-19.9-1.5a15.8 15.8 0 0 1-14.6-16.8z" fill="#FFF"/>
<path d="M186.1 252.4c-7.5 3.7-13.4 7.1-16.5 15-2-4.7-4-6.3-6-10.9-.7-1.4-2.7-.2-2 1.2l7 16.4c.5 1 1.9.6 2.2-.3a32.2 32.2 0 0 1 16.5-19.4c1.4-.7.2-2.6-1.2-2z" fill="#6C63FF"/>
<path d="M2.5 82.5A77.5 77.5 0 0 1 6 33.1a3.8 3.8 0 0 1 4-3.5l37.2 2.6a3.8 3.8 0 0 1 3.6 4L47 85.8a3.8 3.8 0 0 1-4 3.5L6 86.6a3.8 3.8 0 0 1-3.5-4z" fill="#F2F2F2"/>
<path d="M6.3 67.8c-3-8.3-1-19.6 2.4-31.8a3.6 3.6 0 0 1 3.7-3.2l32 2.2c2 .2 3.4 1.9 3.3 3.8l-3.1 44a3.6 3.6 0 0 1-3.8 3.3L21 84.6A15.8 15.8 0 0 1 6.3 67.8z" fill="#FFF"/>
<path d="M40 47.5c-7.5 3.7-13.4 7-16.5 14.9-2-4.6-4-6.2-6-10.8-.7-1.4-2.7-.3-2 1.1l7 16.5c.5 1 2 .6 2.2-.3a32.2 32.2 0 0 1 16.6-19.4c1.3-.7.1-2.6-1.3-2z" fill="#6C63FF"/>
<path d="M291.4 431.9a1 1 0 0 1-.7-1.6v-.4a2.6 2.6 0 0 0-4.6 0c-.8 2-1.7 3.7-2 5.7a7 7 0 0 0 .2 2.5 30 30 0 0 1-2.6-15.7l.5-2.6c.9-4.6 3-9.1 6-12.8 1.4-.8 2.5-2 3.3-3.5a6.2 6.2 0 0 0 .6-1.7c-.3-.8-.5-1.7-.5-2.6-.2-.3-.6-.5-1-.8-1.2-1.7-2.9-1.4-3.8.8-1.8 1-1.8 2.6-.7 4.1.8 1 .9 2.4 1.6 3.4l-.3.2a26.2 26.2 0 0 0-3.1 5c.2-2 0-4-.8-5.8-.8-1.7-2.1-3.2-3.3-4.7a2.6 2.6 0 0 0-4.7 1.3l.6.3a1.2 1.2 0 0 1-.6 2.4l.3 1.8c-1.5 6 1.8 8.1 6.6 8.2l.3.2a31.1 31.2 0 0 0-1.7 12.6 7.7 7.7 0 0 0-2.6-4.6c-2.1-1.5-5-2.2-7.2-3.5a1.5 1.5 0 0 0-2.2 1.3l1 .6.4.3a1.2 1.2 0 0 1-.4 2.3h-.1c.5 1.3 1.3 2.6 2.3 3.6 1 5.2 5.1 5.8 9.5 4.2.5 2.2 1.2 4.2 2 6.2h7.5v-.3c-.6 0-1.2 0-2-.2l1.7-2 .9-1c0-1.1 0-2.2-.4-3.2zm186 0a1 1 0 0 0 .8-1.6l-.2-.4a2.6 2.6 0 0 1 4.7 0c.7 2 1.7 3.7 2 5.7a7 7 0 0 1-.1 2.5 30 30 0 0 0 2.5-15.7l-.4-2.6c-1-4.6-3-9.1-6-12.8-1.4-.8-2.6-2-3.4-3.5a6.2 6.2 0 0 1-.5-1.7c.3-.8.4-1.7.4-2.6l1-.8c1.2-1.7 3-1.4 3.8.8 1.9 1 1.9 2.6.7 4.1-.7 1-.7 2.4-1.5 3.4l.2.2a31 31 0 0 1 3.3 5c-.3-2 0-4 .7-5.8.7-1.7 2-3.2 3.3-4.7a2.6 2.6 0 0 1 4.6 1.3l-.5.3a1.2 1.2 0 0 0 .5 2.4l-.3 1.8c1.6 6-1.8 8.1-6.6 8.2l-.3.2a31.1 31.2 0 0 1 1.7 12.6 7.7 7.7 0 0 1 2.7-4.6c2-1.5 4.9-2.2 7.1-3.5a1.5 1.5 0 0 1 2.3 1.3l-1 .6-.5.3a1.2 1.2 0 0 0 .5 2.3c-.5 1.3-1.3 2.6-2.3 3.6-.9 5.2-5 5.8-9.5 4.2-.4 2.2-1.1 4.2-2 6.2h-7.5v-.3c.6 0 1.3 0 2-.2l-1.7-2-.8-1c0-1.1 0-2.2.3-3.2z" fill="#F2F2F2"/>
<path d="m432.5 431.3h-7l-3.3-27h10.3v27z" fill="#FFB6B6"/>
<path d="M432.8 438.5h-21.6v-.2a8.3 8.4 0 0 1 8.4-8.4l3.8-3 7.4 3h1.8l.2 8.6z" fill="#2F2E41"/>
<path d="m380 431.3h-7l-3.3-27h10.2v27z" fill="#FFB6B6"/>
<path d="M380.2 438.5h-21.6v-.2a8.3 8.4 0 0 1 8.4-8.4l3.9-3 7.3 3h1.9l.1 8.6z" fill="#2F2E41"/>
<path d="m438.8 203.4-11.6 4.7c-.2 8.2 7.8 25.1 7.8 25.1l4 31.1a5.6 5.6 0 1 0 9.6-.8l.4-39-10.2-21.1z" fill="#FFB6B6"/>
<path d="m415.6 177a13.2 13.2 0 0 1 17.8 9.8l1.6 7.8s16.7 22.6 15.1 30.9l-18 2.3s-3-11.4-7.6-15c-3-2.2-8.8-12.3-12.3-21.2-2.7-6.7-3.4-12 3.4-14.7z" fill="#6C63FF"/>
<path d="M368.2 245s-13 12.6-10.2 15.4c2.7 3 9.1 7 3.2 7.8-5.8.7-8.2 2-3.2 3.3 5 1.2 4.3 4.3 4.3 4.3s-7.6 36.4-1.8 60.3c0 0 3.2 65.5 5.2 70.7 2 5 2.8 2 2 5-.7 3.1-2.3-2.3-.7 3.1a67 67 0 0 1 2 8.7l15.1-2.3s2.4-7.7 0-9.8c-2.4-2-4.6-.7-2-5.2s3.4 1.7 2.6-4.5c-.7-6.2 2.5-39.6-2.6-57.3l9.4-49.6 15 51.4s8 62.7 10.5 65c2.5 2.2 6.4-1.8 2.5 2.1-3.9 3.9-3.8 3.2-3.9 3.9-.7 7 21.5-.7 21.5-.7-.2-1.7-.2-3.6 0-5.4.2-1.7-2.6-2.2 0-3.8s-1.3 0-1.3 0-5.7-46.4-10-60.3l-5-68.4s-.4 1.4 0-2 2.6-1 .3-3.3-4-3.4-2.4-5.1 5.8-5.3 3.4-7.4-7.5-16-7.5-16l-48.3.5" fill="#2F2E41"/>
<path d="m386.4 168.3 8.7-9.9 13.7 1.6 8.9 12.4a18.8 18.8 0 0 1 14.3 21.5c-1.7 9.8-5.5 19.4-8.3 27.8-.3 1 1 4.6-1 3s-.7 2.4-1.1 3.6c-1.6 5.7-2.3 10.5-.8 14.1.7 1.9 5.2 5.7 1.9 5.1-3.3-.5.9 3 1.3 4.3 1.8 7.9-.6 10.8-11 9.3-13.9-2-60.7-6.8-51.6-15.9 9-9 11-24.2 11-24.2l.4-34.6a15.5 15.5 0 0 1 12.4-18l1.2-.1z" fill="#6C63FF"/>
<path d="m383.7 208-11.9-3.8c-5.3 6.3-9.8 24.5-9.8 24.5l-16.7 26.5a5.6 5.6 0 1 0 7.9 5.5l25.1-30 5.4-22.7z" fill="#FFB6B6"/>
<path d="m382.7 173a13.2 13.2 0 0 1 7.5 18.9l-3.8 7s-1 31.2-7.4 36.6l-15.8-12.8s5-10.7 3.5-16.5c-1-3.5 1.1-15 4-24 2.3-7 5-11.5 12-9.3z" fill="#6C63FF"/>
<path d="m422.4 141a16 16 0 0 1-4.9 11.7 16 16 0 0 1-11.7 4.9 16 16 0 0 1-11.8-4.9 16 16 0 0 1-4.9-11.7 16 16 0 0 1 4.9-11.8 16 16 0 0 1 11.8-4.9 16 16 0 0 1 11.7 5 16 16 0 0 1 4.9 12.3" fill="#FFB6B6"/>
<path d="M408.8 157.3c-4.6-1.2-4.8-2.6-9.5-3.7-1.4-.3-3-1-3.5-2.3-.3-1.1 0-2.4.8-3.1s1.4-1.6 2-2.5a5 5 0 0 0-3.4-7.6c-1.5-.2-3 .2-4.4 0-2-.3-5-7.7-3.6-9.2 1.2-1.5 3.2-2.3 3.9-4.2.4-1.2.2-2.5.4-3.8.3-1.8 4 3.3 3.6 1.5-1.3-4.5 19.5-5.2 21.6.6.9 2.1 3.1 2.4 4.7 4 1.2 1 3.8 4.2 4.2 6 .3 1.7.2 3.5-.2 5.3-1.7 8-4.6 15.4-12.2 18.7" fill="#2F2E41"/>
<path d="m540 439.6-301.3.2a1 1 0 0 1 0-1.8l301.3-.2a1 1 0 1 1 0 1.8z" fill="#CACACA"/>
<path d="M95.8 203.5a27.8 27.8 0 0 0-20-8.2h-.4a28.6 28.6 0 0 1-14.3-3.8l-.5-.3.4-.4a27.8 27.8 0 0 0 4.8-7 8.5 8.5 0 0 1-7.8 2 9 9 0 0 1-5.4-4c-2.7-4.4-7-10.6-5.8-15 1.7-6.6 24.6 4 9.4-21.3-2.6-4.3 6-8.2 6-13.3v-.4c0-3.2.3-6.5 1.1-9.7v-.3h.5c2.1 0 4.2 0 6.3-.5-2-.3-3.9-.8-5.7-1.6l-.4-.1.1-.4c8.4-5.2 27.3-2.5 38.3-27.6 8.9-20.4 40.3 18 40.3 40.2 0 2.4-2.3 5.4-.6 6.9 18.2 16.2 5.7 26.6 1.7 37-.9 2.5 1.1 5.2 1.1 8v2.1l-.7-.4a20 20.1 0 0 1-3.2-2.7 17.5 17.5 0 0 1-.6 15c-1.9 3.7-4.3 9.6-5.5 7.7-8.7-14.2-20.7-39.8-19.8-10 .3 10-12 15.5-19.2 8.3l-.1-.2z" fill="#E6E6E6"/>
<path d="M88.9 130.6c-1.8-.3-3-1.5-2.8-2.6.1-1.2 1.6-2 3.4-1.7s3 1.5 2.8 2.6c-.1 1.2-1.7 2-3.4 1.7" fill="#FFF"/>
<path d="M109.3 128.5c-1.8-.3-3-1.4-2.8-2.6.1-1.1 1.7-2 3.4-1.7s3 1.5 2.8 2.6c-.1 1.2-1.6 2-3.4 1.7" fill="#3F3D56"/>
<path d="M83.2 114c-1.7-.3-3-1.5-2.8-2.6.2-1.2 1.7-2 3.5-1.7s3 1.4 2.8 2.6c-.2 1.1-1.7 2-3.5 1.7" fill="#FF6584"/>
<path d="M76.2 107.6c-.7 0-1.4-.9-1.3-2 0-1 .6-2 1.4-2s1.3 1 1.3 2c0 1.1-.6 2-1.4 2" fill="#E6E6E6"/>
<path d="M73.1 95c-.7 0-1.3-1-1.3-2 0-1.1.6-2 1.4-2s1.4.9 1.3 2c0 1-.6 2-1.4 2" fill="#3F3D56"/>
<path d="M96.6 117.2c-.7 0-1.3-.9-1.3-2 0-1 .6-2 1.4-2s1.3 1 1.3 2c0 1.1-.6 2-1.4 2" fill="#E6E6E6"/>
<path d="M86.8 122c-.8 0-1.4-1-1.4-2s.7-2 1.4-2 1.4 1 1.4 2c0 1.1-.6 2-1.4 2" fill="#FF6584"/>
<path d="M100.5 131.2c-.8 0-1.4-1-1.4-2s.7-2 1.4-2 1.4 1 1.4 2c0 1.1-.6 2-1.4 2" fill="#3F3D56"/>
<path d="M286.9 213.8c-.4-25.3-8.9-20.3-18.6-7-1.4 2-3.6-3.9-5.5-7.5a17.5 17.5 0 0 1-.5-15.1 20 20.1 0 0 1-3.3 2.7l-.6.4v-2.1c0-2.7 1.9-5.4 1-7.9-3.9-10.5-16.5-20.9 1.7-37.1 1.7-1.5-.6-4.5-.6-6.8 0-22.2 42.8-62.4 40.3-40.2-4.1 36.2 20.9 29 38.3 27.5l.1.4-.4.2a21.6 21.7 0 0 1-5.7 1.5c2 .5 4.3.6 6.4.5h.3l.1.3c.8 3.2 1.2 6.5 1.2 9.8v.4a17.8 17.8 0 0 0 6 13.3c5.9 5.4 9.2 13.1 9.2 21.2 0 4.6-3.1 10.8-5.8 15.2a8.5 8.5 0 0 1-13.1 1.9 27.8 27.8 0 0 0 4.8 7l.4.3-.5.3a28.6 28.6 0 0 1-14.3 3.9h-.3a27.8 27.8 0 0 0-20 8.2 28.8 28.8 0 0 1-20.6 8.7z" fill="#F2F2F2"/>
<path d="M275.8 196.9A12.7 12.7 0 0 1 254 202c-7.3-8-11-1.8-11.1 15.9 0 2.3-5.1-1.7-8.6-3.9a17.5 17.5 0 0 1-8.1-12.7 20 20.1 0 0 1-1.5 4l-.3.6-.4-.6-.7-1.2c-1.4-2.3-1-5.7-3-7.3-8.7-7.1-24.8-9.8-17.3-33 .8-2-1.8-4.4-3.9-5.5-32.4-17.4-11.2-67.6 14.6-55.2 24.7 12 37 4.4 47 4.7l.2.2-.2.3a21.6 21.7 0 0 1-4.2 4.2c2-.7 4-1.6 5.8-2.7l.3-.2.2.3c2.3 2.3 4.4 5 6 7.8l.1.3a17.8 17.8 0 0 0 11.9 8.5 28.6 28.6 0 0 1 18.7 13.6c2.3 4 2.7 10.7 2.6 15.8a8.5 8.5 0 0 1-10.4 8.6 28 28 0 0 0 7.8 3.5l.4.2-.2.4a28.6 28.6 0 0 1-10.5 10.6l-.3.2a27.8 27.8 0 0 0-13 17.1l-.2.3z" fill="#E6E6E6"/>
<path d="m92.7 182.1.1-.1a20.9 20.9 0 0 0-4.3-7.3 24.3 24.3 0 0 0-18-7.7v.2c2.3 5.9 6.2 11 15.8 9 4.7-1 6.1 6 6.1 6h.3zm140 3.9v-.2a20.9 20.9 0 0 0-4.3-7.2 24.3 24.3 0 0 0-18-7.7s.1 0 0 .2c-11.3 9.8 3 10 15.8 9 4.8-.5 6.1 5.9 6.1 5.9h.3zm-114.8-63.5c.1 0 .2-.2.3 0 2.3 1.6 5.7-.4 1.6-8.3-2-4-1.2-11.2-7.8-17.8h-.3c-.2 0-.2 0-.1.1 6.5 6.5 5.6 12.8 5.6 17.3 0 2.9.1 5.8.5 8.5l.2.2zM224 145.8l.1-.2a10.4 10.4 0 0 1-4.3-7.3c-2.3-22-8.2-14.3-17.8-7.7h-.2v.2c9.2.5 12.8 5.8 15.8 9 2 2.2 4 4.1 6.1 6h.3z" fill="#F2F2F2"/>
<path d="m324 176-.2-.2a11 11 0 0 0 4.3-7.3c5.2-31.3 9.6-21.4 17.8-7.7h.3l-.1.2c-9.2.5-12.8 5.7-15.8 9a62.2 62.2 0 0 1-6.2 6h-.1z" fill="#FFF"/>
<path d="M121.4 169.7v-.1s5.8-2.6 4.2-7.3c-5.7-16.6 5.9-11.4 17.8-7.7h.3l-.1.2c-9.2.5-12.8 5.7-15.8 9a62.2 62.2 0 0 1-6.2 6h-.1zM266 162v-.2a38 38 0 0 0 4.2-7.2c11-24 13.5-20.3 17.8-7.8l.3.1v.2c-9.3.4-13 5.7-15.8 9a62.2 62.2 0 0 1-6.2 5.9h-.2z" fill="#F2F2F2"/>
</svg>
