<?xml version="1.0" encoding="UTF-8"?>
<svg viewBox="0 0 779 584" xmlns="http://www.w3.org/2000/svg">
<path transform="matrix(1.0072 0 0 1.0072 118.2 0)" d="M506.8 441.5h-405c-7.5 0-13.6-6.1-13.6-13.6V98c0-7.5 6.1-13.6 13.6-13.6h405c7.5 0 13.6 6.1 13.6 13.6V428c0 7.5-6.1 13.6-13.6 13.6z" fill="#E6E6E6"/>
<path transform="matrix(1.0072 0 0 1.0072 118.2 0)" d="M467.4 432.3H111c-7.5 0-13.6-6.1-13.6-13.6V107.3c0-7.5 6.1-13.6 13.6-13.6h386.6c7.5 0 13.6 6.1 13.6 13.6v281.2a43.8 43.8 0 0 1-43.8 43.8z" fill="#FFF"/>
<path transform="matrix(1.0072 0 0 1.0072 118.2 0)" d="M369.5 164.1H206.7a3.5 3.5 0 1 1 0-7h162.8a3.5 3.5 0 1 1 0 7z" fill="#6C63FF"/>
<path transform="matrix(1.0072 0 0 1.0072 118.2 0)" d="M451.9 201.6H206.7a3.5 3.5 0 1 1 0-7H452a3.5 3.5 0 0 1 0 7zm0 37.4H206.7a3.5 3.5 0 0 1 0-7H452a3.5 3.5 0 1 1 0 7zm0 37.4H206.7a3.5 3.5 0 0 1 0-7H452a3.5 3.5 0 0 1 0 7zm0 37.5H206.7a3.5 3.5 0 0 1 0-7H452a3.5 3.5 0 0 1 0 7z" fill="#E6E6E6"/>
<path transform="matrix(1.0072 0 0 1.0072 118.2 0)" d="m440.9 373.6a17.8 17.8 0 1 1 0-35.6 17.8 17.8 0 0 1 0 35.6z" fill="#6C63FF"/>
<path transform="matrix(1.0072 0 0 1.0072 118.2 0)" d="m450.9 355-5-7.4a1.5 1.5 0 1 0-2.6 1.7l3.3 4.7h-12.8a1.8 1.8 0 0 0 0 3.5h13l-3.5 5a1.5 1.5 0 1 0 2.5 1.7l5-7.3a2 2 0 0 0 0-2z" fill="#FFF"/>
<path transform="matrix(1.0072 0 0 1.0072 118.2 0)" d="M537 35.9H71.7a1.8 1.8 0 0 1 0-3.6H537a1.8 1.8 0 0 1 0 3.6z" fill="#CACACA"/>
<path transform="matrix(1.0072 0 0 1.0072 118.2 0)" d="M129.9 392a6.4 6.4 0 0 0 0-9.7L126 349l-12.2 2.8 6.8 31.6a6.4 6.4 0 0 0 9.3 8.6z" fill="#FFB6B6"/>
<path transform="matrix(1.0072 0 0 1.0072 118.2 0)" d="m128.6 354.4-14.1 8.9s-1 5.1-1.9-7.9c0-1.3.9-3.7.8-5-.2-1.7-4.7-2.4-4.8-4 0-1.1 1.2-2.1 1.2-3.2l-.4-5.1c-.1-1.4-1.7-2.3-1.8-3.7 0-1.3 1.3-3.2 1.2-4.5-.7-9.6 1.7-34 1.7-34.5a7 7 0 0 0-1.5-3.4l.8-2.3-.5-4.2c-.7-5.6.5-11.2 3.3-16l3.6-2.4 16.6 27.9c-7 24.1-11.5 33.6-4.2 59.4z" fill="#6C63FF"/>
<path transform="matrix(1.0072 0 0 1.0072 118.2 0)" d="m117.6 562.6h8.5l4.1-33h-12.6v33z" fill="#FFB6B6"/>
<path transform="matrix(1.0072 0 0 1.0072 118.2 0)" d="m114.8 556.7 13.7-.8v5.9l13 9a3.7 3.7 0 0 1-2.1 6.6H123l-2.8-5.8-1.1 5.8H113l1.8-20.7z" fill="#2F2E41"/>
<path transform="matrix(1.0072 0 0 1.0072 118.2 0)" d="m165.7 562.6h8.6l4-33h-12.6v33z" fill="#FFB6B6"/>
<path transform="matrix(1.0072 0 0 1.0072 118.2 0)" d="m162.9 556.7 13.7-.8v5.9l13 9a3.7 3.7 0 0 1-2 6.6h-16.4l-2.8-5.8-1 5.8h-6.2l1.7-20.7zm-49-22.6 1.7-78.7a14 14 0 0 1 .2-13.3l.2-.4-.6-2.9a18 18 0 0 1 1-10.8l1.6-50.1c-5.5-35.6 20.7-58.9 20.7-58.9h39.2l8.4 29c5.6 54.2 4.5 132-4.3 183.2h.3a2 2 0 0 1 .8 2.8c-.4 1.1-1.4 1.9-2.3 1.6l-20.7-.8a2 2 0 0 1-.9-2.6c.5-1.2 1.5-2 2.4-1.6l1.4.7-1.5-3a11 11 0 0 1 1-11.2l-.3-6.5a10 10 0 0 1-2-9.4l1.4-4.5-1.6-42.2.3-9.5-.7-10.8-3.2-48.3-12 59.4-12.3 89.4c.6.5 1 1.4.7 2.1-.2 1.1-1.2 1.8-2.3 1.8H114a2.3 2.3 0 0 1-2.2-2.9c.3-1 1.2-1.6 2.2-1.6z" fill="#2F2E41"/>
<path transform="matrix(1.0072 0 0 1.0072 118.2 0)" d="m209.2 379.1a6.4 6.4 0 0 0-1.8-9.6l-10.1-32-11.5 5.2 12.7 29.7a6.4 6.4 0 0 0 10.7 6.7z" fill="#FFB6B6"/>
<path transform="matrix(1.0072 0 0 1.0072 118.2 0)" d="M167.6 277.5s11.5 40.8 11 45c-1 8.4-54 34.6-58 23l.5-3.9c-2-4 10.2-19.8 10.8-21.8.7-2.7-2.7-11.4-2.7-11.4s2.4-7.9 2-12.8c-.4-4.9-1.5-4.1-5.7-7.2-4.1-3-11-17-11-17s3.1-13.5 3.1-16.1c0-2.7 12.4-7.2 13.9-8.7.7-.9 1.2-1.8 1.6-2.8.4-.6.2-2 .5-2.7.2-.5 1-.2 1.1-.7.2-.4 0-1 .3-1.4.2-.6.9-1.1 1.1-1.7a18 18 0 0 1 2.5-4.7c.8 0 25 3.4 25 3.4 1.3 2 2.8 4 4.5 5.7 2.6 2.6 15 9 15 9l-15.5 26.8z" fill="#6C63FF"/>
<path transform="matrix(1.0072 0 0 1.0072 118.2 0)" d="M200.2 346.1c-1.9 2-11.2 10.6-11.6 8.3-.4-2.2-.6-2.5-2-3.3-1.6-.7-1.6-1-2-3.7-.3-2.7-3.7-5.3-3.4-6.4.4-1.2 0 .3 0-.9 0-1.1-1-5.2-2.6-6-1.5-.8-3.7-1.5-2.6-3.4s-10.7-58.5-10.7-58.5l10.6-20.7 7.2-.8s2.2 1.3 2.8 12.5c0 .6.7 1.6.7 2.2 0 .5-.5.6-.5 1.2v.3c0 .6 1.5 1 1.5 1.5l.7 8c0 1 .2 1.9.3 2.8 1 10.1 1.4 11 2 14.2 1 5 5.2 34.2 5.2 34.2s3 .8 3 3.4c0 2.7 3.3 8 1.8 11-1.5 3 1.5 2.3-.4 4.1z" fill="#6C63FF"/>
<path transform="matrix(1.0072 0 0 1.0072 118.2 0)" d="m166.8 214c0 4.9-1.8 9.1-5.3 12.6a17.2 17.2 0 0 1-12.6 5.2c-5 0-9.2-1.7-12.7-5.2a17.2 17.2 0 0 1-5.2-12.7c0-4.9 1.7-9.1 5.2-12.6s7.8-5.3 12.8-5.3 9.1 1.8 12.6 5.3a17.2 17.2 0 0 1 5.3 13.3" fill="#FFB8B8"/>
<path transform="matrix(1.0072 0 0 1.0072 118.2 0)" d="m110.3 251.6-11.3-4c.6-1.2 1.4-2.2 2.4-3 3.6-3 8.6-3.5 13.2-4.5s9.5-3.1 11.2-7.5c1.8-4.6-.8-9.5-2.2-14.1a28.4 28.4 0 0 1 .7-20c2.7-6.3 8.3-11 15-12.7 6.6-1.5 14 1 18.2 6.4 5.4-1.7 11.2 1 13.5 6.2 1 2.4.9 5.2-.5 7.4-1.4 2.1-4.4 3.2-6.7 2l1.3-3.3c-4 1.4-6.7 8.8-6.1 13 .5 4.3 3 8 5.5 11.6 2.6 3.4 5.3 7 6.3 11.1 1.6 6-.5 12.6-4.4 17.4-4 4.8-9.5 8-15.2 10.5a70.2 70.2 0 0 1-13.3 4l2.5-4.7-9.7 5.9c-1.8.1-3.7.3-5.6.3-5.5 0-11-.5-16-2.7s-9.5-6.1-11.3-11.3c-.5-1.7-.8-3.4-.8-5.2l13.3-2.8z" fill="#2F2E41"/>
<path transform="matrix(1.0072 0 0 1.0072 118.2 0)" d="M283.2 578.8H250l-.1-.3-1.2-2.4c-3.4-7.3-4.9-15.7-6.2-23l-1-5.6a3.4 3.4 0 0 1 5.5-3.4 15848 15848 0 0 0 21.3 15.7l.6-2.9a3.4 3.4 0 0 1 6.3-1l3.9 6.2c2.8 4.5 5.3 9 4.8 13.9v.1a11 11 0 0 1-.6 2.4v.3z" fill="#F0F0F0"/>
<path transform="matrix(1.0072 0 0 1.0072 118.2 0)" d="m316.5 579.5-315.3.3a1.2 1.2 0 0 1 0-2.4l315.3-.3a1.2 1.2 0 0 1 0 2.4z" fill="#CACACA"/>
<path transform="matrix(1.0072 0 0 1.0072 118.2 0)" d="M81.4 8.6C81.4 4 85.2 0 90 0s8.4 3.9 8.4 8.6c0 4.8-3.7 8.7-8.4 8.7a8.6 8.6 0 0 1-8.5-8.7M110.6 8.6c0-4.7 3.8-8.6 8.5-8.6s8.5 3.9 8.5 8.6c0 4.8-3.8 8.7-8.5 8.7a8.6 8.6 0 0 1-8.5-8.7M139.9 8.6c0-4.7 3.7-8.6 8.4-8.6s8.5 3.9 8.5 8.6c0 4.8-3.8 8.7-8.5 8.7a8.6 8.6 0 0 1-8.4-8.7M181.6 15.5a1 1 0 0 1-.7-.3l-5.7-5.9a1 1 0 0 1 0-1.4l5.7-5.8a1 1 0 0 1 1.4 1.4l-5 5.1 5 5.2a1 1 0 0 1-.7 1.7zm9.6 0a1 1 0 0 1-.7-1.7l5-5.2-5-5a1 1 0 0 1 1.4-1.5l5.7 5.8c.4.4.4 1 0 1.4l-5.7 5.9a1 1 0 0 1-.7.3zM489.7 1h-10.6C478 1 477 2 477 3.2v10.6c0 1.2 1 2.2 2.2 2.2h10.6c1.2 0 2.2-1 2.2-2.2V3.2c0-1.2-1-2.2-2.2-2.2zm-26 0h-10.6C452 1 451 2 451 3.2v10.6c0 1.2 1 2.2 2.2 2.2h10.6c1.2 0 2.2-1 2.2-2.2V3.2c0-1.2-1-2.2-2.2-2.2zm50.5.5h-10.6c-1.2 0-2.2 1-2.2 2.2v10.6c0 1.2 1 2.2 2.2 2.2h10.6c1.2 0 2.2-1 2.2-2.2V3.7c0-1.2-1-2.2-2.2-2.2zm-159.9 4h-84.8a2.7 2.7 0 0 0 0 5.4h84.8a2.7 2.7 0 0 0 0-5.4z" fill="#3F3D56"/>
</svg>
